<?xml version="1.0" standalone="no"?>
<!DOCTYPE svg PUBLIC "-//W3C//DTD SVG 20010904//EN"
 "http://www.w3.org/TR/2001/REC-SVG-20010904/DTD/svg10.dtd">
<svg version="1.0" xmlns="http://www.w3.org/2000/svg"
 width="680.000000pt" height="680.000000pt" viewBox="0 0 680.000000 680.000000"
 preserveAspectRatio="xMidYMid meet">
<metadata>
Created by potrace 1.14, written by Peter Selinger 2001-2017
</metadata>
<g transform="translate(0.000000,680.000000) scale(0.100000,-0.100000)"
fill="#000000" stroke="none">
<path d="M1018 6795 c-2 -2 -16 -6 -31 -9 -15 -3 -39 -8 -53 -11 -31 -7 -135
-58 -167 -83 -53 -41 -134 -134 -160 -184 -33 -64 -64 -163 -63 -201 1 -15 -1
-27 -4 -27 -9 0 0 -121 15 -193 10 -49 45 -129 81 -183 68 -102 188 -186 314
-218 72 -19 199 -26 245 -14 17 4 44 10 60 13 17 3 35 7 41 8 44 10 153 77
202 125 114 113 164 230 168 399 2 56 -1 116 -7 135 -6 18 -12 42 -14 53 -16
71 -75 166 -148 236 -104 101 -226 150 -384 154 -50 2 -93 1 -95 0z"/>
<path d="M4299 6796 c-2 -2 -29 -6 -59 -10 -66 -7 -134 -19 -180 -31 -3 -1
-23 -5 -45 -10 -22 -4 -46 -12 -52 -18 -7 -5 -13 -7 -13 -3 0 11 -185 -61
-304 -119 -274 -133 -488 -320 -648 -565 -33 -50 -107 -196 -117 -231 -3 -8
-15 -44 -27 -81 -21 -61 -38 -135 -50 -213 -3 -16 -7 -87 -11 -157 l-5 -127
88 -84 c49 -47 105 -99 124 -117 36 -33 252 -239 415 -395 50 -47 146 -139
214 -203 68 -64 133 -128 145 -140 11 -13 28 -28 37 -33 18 -9 19 10 23 288 0
51 3 93 6 93 3 0 5 30 6 68 1 76 13 252 20 297 3 17 7 50 9 75 7 85 93 330
116 330 5 0 9 7 9 15 0 27 141 158 200 187 51 24 68 30 140 45 72 15 186 3
284 -32 44 -15 63 -24 137 -67 94 -53 207 -211 225 -315 2 -13 7 -35 11 -50 4
-16 8 -685 10 -1488 l2 -1460 48 -2 c53 -3 124 -3 251 0 45 1 82 0 82 -3 0 -3
24 -4 52 -2 51 2 71 2 198 3 30 0 81 1 113 2 32 1 61 -1 63 -5 3 -5 10 -6 16
-2 9 6 120 9 143 4 6 -1 15 -1 20 0 25 5 132 3 142 -3 7 -4 14 -4 16 0 2 5 3
127 1 273 -1 146 -5 618 -9 1050 -8 1110 -15 1472 -30 1725 -6 94 -16 198 -20
205 -2 3 -6 23 -9 45 -11 68 -77 245 -130 350 -28 55 -53 102 -56 105 -3 3
-17 23 -30 44 -64 106 -219 278 -335 373 -75 61 -208 154 -245 170 -8 3 -27
15 -42 25 -16 11 -28 16 -28 13 0 -3 -13 3 -29 14 -16 12 -33 21 -38 21 -5 0
-28 9 -51 20 -22 11 -47 20 -55 20 -7 0 -17 4 -23 8 -8 8 -128 45 -182 57 -12
3 -32 7 -44 10 -28 6 -74 15 -113 21 -35 6 -381 15 -386 10z"/>
<path d="M510 5026 c-1 -33 -1 -335 -1 -671 0 -654 1 -667 56 -895 13 -55 38
-127 56 -162 5 -10 9 -22 9 -27 0 -44 193 -372 265 -451 63 -70 195 -200 234
-230 24 -19 49 -39 55 -45 27 -23 76 -55 85 -55 5 0 11 -3 13 -7 12 -27 237
-139 368 -183 52 -18 102 -34 110 -37 8 -3 22 -7 30 -9 8 -1 29 -5 45 -8 17
-3 68 -12 115 -21 129 -24 402 -24 533 0 15 3 37 7 50 9 12 2 45 10 72 16 28
6 57 13 65 15 43 9 251 85 260 95 3 3 45 25 94 50 205 103 415 282 559 475 20
28 40 55 45 60 18 22 82 135 117 205 56 111 70 153 78 235 l5 40 -519 519
-519 519 0 -44 c-2 -200 -10 -487 -15 -541 -13 -152 -64 -266 -160 -363 -60
-60 -70 -68 -153 -112 -146 -78 -343 -78 -502 1 -86 43 -142 102 -194 203 -26
53 -69 190 -79 253 -3 19 -8 45 -10 56 -14 60 -19 245 -19 685 l0 486 -574 0
-574 0 0 -61z"/>
<path d="M2965 1352 c-56 -19 -97 -80 -84 -124 4 -16 5 -28 2 -28 -2 0 6 -14
18 -31 55 -77 175 -69 210 14 19 45 16 97 -8 123 -43 46 -90 62 -138 46z"/>
<path d="M60 768 c0 -269 3 -488 8 -489 10 0 169 0 217 0 l40 1 -2 477 c-1
263 -2 483 -2 489 -1 7 -46 10 -131 10 l-130 -1 0 -487z"/>
<path d="M880 1080 c0 -3 -12 -6 -26 -7 -35 -2 -103 -50 -131 -92 l-23 -34 0
55 0 56 -40 4 c-23 2 -46 0 -52 -3 -7 -4 -21 -3 -31 3 -13 7 -22 7 -30 -1 -6
-6 -16 -7 -27 -1 -9 5 -22 5 -29 1 -7 -5 -21 -7 -30 -4 -15 4 -16 -27 -16
-381 0 -211 3 -387 6 -391 7 -6 56 -8 187 -6 l62 1 0 283 0 283 39 22 c38 21
102 29 136 16 8 -4 23 -21 32 -38 14 -26 16 -71 16 -294 0 -144 4 -265 8 -268
8 -4 165 -8 224 -5 21 1 21 5 19 309 -1 323 -4 348 -49 403 -32 39 -75 68
-117 80 -43 11 -128 17 -128 9z"/>
<path d="M1607 1083 c-1 0 -22 -3 -47 -6 -162 -18 -267 -92 -287 -203 -6 -28
-9 -57 -7 -65 1 -8 4 -29 7 -46 7 -42 38 -93 74 -119 43 -32 78 -46 232 -95
81 -25 103 -50 73 -81 -35 -36 -185 -45 -282 -17 -25 7 -48 13 -52 13 -3 1
-10 4 -14 9 -23 22 -29 2 -27 -85 2 -50 5 -93 7 -95 2 -3 12 -6 23 -8 10 -2
20 -4 23 -6 7 -3 16 -4 85 -14 102 -14 242 -7 300 15 14 5 25 7 25 5 0 -14
105 50 135 82 45 48 61 129 40 203 -27 95 -89 143 -252 195 -120 39 -151 61
-132 96 17 33 51 43 144 43 66 -1 105 -6 147 -21 31 -12 58 -20 60 -18 2 3 1
151 -1 177 -1 10 -59 26 -121 34 -52 6 -150 11 -153 7z"/>
<path d="M2395 1075 c-26 -6 -56 -26 -86 -55 -37 -37 -45 -41 -41 -23 2 13 2
33 -1 45 -6 22 -9 23 -114 20 -59 -2 -115 -3 -124 -3 -14 -1 -15 -56 -15 -530
l0 -529 127 0 127 0 1 147 c0 82 0 163 0 180 l1 32 44 -44 c57 -57 122 -71
218 -49 110 26 169 81 219 206 27 67 35 255 16 339 -28 116 -94 210 -174 245
-51 22 -149 31 -198 19z m77 -222 c15 -14 26 -29 23 -31 -3 -3 -1 -10 4 -16
22 -27 29 -178 11 -244 -11 -45 -41 -87 -73 -104 -42 -22 -141 -2 -163 33 -4
6 -6 72 -6 145 1 227 -1 212 27 230 60 39 128 34 177 -13z"/>
<path d="M3687 1084 c-2 -2 -12 -5 -23 -7 -62 -11 -118 -53 -148 -112 l-16
-30 0 63 0 62 -127 0 -128 0 0 -385 c1 -211 4 -387 7 -391 6 -5 141 -8 226 -5
l22 1 0 273 c0 250 2 275 18 290 30 27 95 49 142 49 44 -1 150 -38 150 -52 0
-4 6 -10 13 -13 21 -8 18 214 -3 229 -21 16 -124 37 -133 28z"/>
<path d="M4135 1075 c-160 -37 -242 -159 -250 -376 -8 -199 54 -348 171 -407
52 -27 137 -42 180 -32 19 4 34 6 34 3 0 -8 74 40 87 57 6 8 17 23 25 33 12
16 13 14 12 -23 0 -22 3 -43 9 -47 12 -7 223 -6 236 1 6 4 10 159 9 391 l0
385 -26 1 c-33 0 -173 -1 -187 -3 -5 0 -17 1 -25 3 -12 3 -15 -6 -14 -43 1
-39 -1 -45 -12 -33 -8 7 -14 17 -14 21 0 15 -57 55 -91 64 -59 16 -91 17 -144
5z m234 -213 l26 -19 0 -169 c1 -94 -4 -175 -9 -182 -16 -22 -67 -44 -103 -44
-61 0 -89 19 -116 79 -22 49 -25 67 -22 152 2 99 18 153 52 182 45 40 120 40
172 1z"/>
<path d="M5185 1078 c-60 -12 -103 -39 -136 -82 l-29 -40 0 55 0 54 -46 -2
c-25 0 -48 -4 -51 -7 -3 -3 -15 -1 -25 5 -14 8 -23 8 -31 0 -6 -6 -16 -7 -27
-1 -9 5 -22 5 -30 0 -8 -5 -22 -4 -32 1 -15 8 -18 6 -19 -13 -3 -54 -5 -754
-2 -763 3 -10 249 -12 259 -2 3 3 6 132 7 287 l2 283 27 20 c37 28 110 31 140
7 23 -18 23 -19 24 -304 0 -157 3 -289 7 -292 6 -6 45 -7 204 -5 l43 1 2 286
3 287 28 21 c36 27 118 29 144 3 16 -16 18 -43 18 -302 1 -156 4 -287 7 -290
3 -4 58 -7 122 -8 102 -2 117 0 122 15 7 24 9 147 1 154 -3 3 -2 16 3 29 5 13
6 26 3 29 -8 7 -7 95 0 102 3 3 1 19 -3 35 -5 16 -6 29 -2 29 4 0 6 19 5 42
-6 151 -13 221 -22 232 -6 7 -8 15 -6 18 3 3 -14 26 -39 51 -29 30 -58 50 -86
57 -51 14 -130 18 -130 7 0 -5 -4 -5 -10 -2 -13 8 -93 -28 -118 -53 -12 -12
-28 -32 -37 -46 -19 -29 -35 -34 -35 -11 0 20 -48 73 -81 91 -25 12 -66 23
-114 28 -11 1 -38 -1 -60 -6z"/>
<path d="M6303 1074 c-152 -26 -266 -122 -307 -259 -5 -19 -18 -109 -17 -130
1 -224 113 -373 314 -415 75 -15 221 -15 277 0 122 33 110 20 110 126 0 52 -3
94 -8 94 -4 0 -17 -6 -28 -14 -62 -44 -200 -54 -282 -21 -41 17 -42 18 -26 36
9 11 23 19 31 19 7 0 21 4 31 10 32 18 268 127 290 134 32 10 43 39 49 121 16
220 -165 344 -434 299z m117 -174 c0 -5 6 -10 14 -10 18 0 41 -57 39 -98 -2
-38 -16 -58 -46 -68 -11 -3 -57 -24 -101 -45 -56 -26 -83 -34 -88 -26 -3 6 -5
14 -2 18 2 4 6 31 9 61 7 67 48 137 95 160 38 20 80 24 80 8z"/>
<path d="M2893 1060 c-18 -5 -19 -26 -19 -392 l0 -388 36 -1 c40 -1 127 -1
182 0 l37 1 0 390 0 390 -52 1 c-29 0 -78 1 -109 2 -31 1 -65 0 -75 -3z"/>
</g>
</svg>
